<svg xmlns="http://www.w3.org/2000/svg" version="1.1" xmlns:xlink="http://www.w3.org/1999/xlink" xmlns:svgjs="http://svgjs.dev/svgjs" width="1400" height="1000" preserveAspectRatio="none" viewBox="0 0 1400 1000"><g mask="url(&quot;#SvgjsMask1152&quot;)" fill="none"><path d="M195.76956820905372 621.6707655208988L267.2774883785616 695.7193845325403 342.5964568112698 551.4331947724577z" fill="rgba(28, 83, 142, 0.4)" class="triangle-float2"></path><path d="M51.894,703.523C115.13,702.59,181.731,683.104,211.724,627.426C240.634,573.758,213.316,512.334,183.539,459.143C152.776,404.191,114.863,342.931,51.894,341.917C-12.123,340.886,-55.211,399.381,-87.307,454.78C-119.517,510.376,-147.7,576.199,-116.322,632.268C-84.449,689.223,-13.366,704.486,51.894,703.523" fill="rgba(28, 83, 142, 0.4)" class="triangle-float2"></path><path d="M721.907,530.145C778.585,531.555,835.539,509.063,864.38,460.251C893.667,410.685,889.233,347.807,858.352,299.218C829.541,253.887,775.615,236.731,721.907,236.084C666.782,235.42,608.057,248.615,579.649,295.861C550.558,344.243,561.907,405.199,591.208,453.454C619.307,499.73,667.785,528.798,721.907,530.145" fill="rgba(28, 83, 142, 0.4)" class="triangle-float1"></path><path d="M223.586,342.579C302.64,342.235,384.562,312.889,421.076,242.772C455.642,176.395,418.077,102.831,382.811,36.823C344.365,-35.137,305.165,-125.834,223.586,-126.875C141.228,-127.926,96.288,-39.812,57.161,32.666C20.746,100.119,-13.17,176.97,23.096,244.504C60.821,314.755,143.848,342.926,223.586,342.579" fill="rgba(28, 83, 142, 0.4)" class="triangle-float2"></path><path d="M818.578,633.744C905.195,640.293,984.531,579.367,1022.404,501.194C1056.326,431.177,1029.183,351.641,986.89,286.339C948.882,227.653,888.334,191.256,818.578,186.48C738.037,180.965,643.595,189.298,604.97,260.188C567.157,329.589,622.721,405.333,661.953,473.942C701.635,543.338,738.864,627.717,818.578,633.744" fill="rgba(28, 83, 142, 0.4)" class="triangle-float3"></path><path d="M226.57347530681233 459.9604864307703L543.2216331643604 510.4220170825098 447.3557546662588 247.03268061279596z" fill="rgba(28, 83, 142, 0.4)" class="triangle-float1"></path></g><defs><mask id="SvgjsMask1152"><rect width="1400" height="1000" fill="#ffffff"></rect></mask><style>
                @keyframes float1 {
                    0%{transform: translate(0, 0)}
                    50%{transform: translate(-10px, 0)}
                    100%{transform: translate(0, 0)}
                }

                .triangle-float1 {
                    animation: float1 5s infinite;
                }

                @keyframes float2 {
                    0%{transform: translate(0, 0)}
                    50%{transform: translate(-5px, -5px)}
                    100%{transform: translate(0, 0)}
                }

                .triangle-float2 {
                    animation: float2 4s infinite;
                }

                @keyframes float3 {
                    0%{transform: translate(0, 0)}
                    50%{transform: translate(0, -10px)}
                    100%{transform: translate(0, 0)}
                }

                .triangle-float3 {
                    animation: float3 6s infinite;
                }
            </style></defs></svg>